<svg width="19" height="19" viewBox="0 0 19 19" fill="none" xmlns="http://www.w3.org/2000/svg">
<path fill-rule="evenodd" clip-rule="evenodd" d="M13.6666 0.242676H5.66663C2.90521 0.242676 0.666626 2.48126 0.666626 5.24268V13.2427C0.666626 16.0041 2.90521 18.2427 5.66663 18.2427H13.6666C16.428 18.2427 18.6666 16.0041 18.6666 13.2427V5.24268C18.6666 2.48126 16.428 0.242676 13.6666 0.242676ZM16.9166 13.2427C16.9111 15.0353 15.4592 16.4872 13.6666 16.4927H5.66663C3.87398 16.4872 2.42212 15.0353 2.41663 13.2427V5.24268C2.42212 3.45003 3.87398 1.99817 5.66663 1.99268H13.6666C15.4592 1.99817 16.9111 3.45003 16.9166 5.24268V13.2427ZM14.4166 5.49268C14.9689 5.49268 15.4166 5.04496 15.4166 4.49268C15.4166 3.9404 14.9689 3.49268 14.4166 3.49268C13.8643 3.49268 13.4166 3.9404 13.4166 4.49268C13.4166 5.04496 13.8643 5.49268 14.4166 5.49268ZM9.66663 4.74268C7.18135 4.74268 5.16663 6.7574 5.16663 9.24268C5.16663 11.728 7.18135 13.7427 9.66663 13.7427C12.1519 13.7427 14.1666 11.728 14.1666 9.24268C14.1693 8.04838 13.696 6.90225 12.8515 6.05776C12.007 5.21327 10.8609 4.74002 9.66663 4.74268ZM6.91663 9.24268C6.91663 10.7615 8.14783 11.9927 9.66663 11.9927C11.1854 11.9927 12.4166 10.7615 12.4166 9.24268C12.4166 7.72388 11.1854 6.49268 9.66663 6.49268C8.14783 6.49268 6.91663 7.72388 6.91663 9.24268Z" fill="black"/>
</svg>

