<svg width="19" height="19" viewBox="0 0 19 19" fill="none" xmlns="http://www.w3.org/2000/svg">
<path d="M14.7071 10.293C14.6143 10.2 14.5041 10.1263 14.3828 10.076C14.2615 10.0257 14.1314 9.99976 14.0001 9.99976C13.8688 9.99976 13.7387 10.0257 13.6174 10.076C13.4961 10.1263 13.3859 10.2 13.2931 10.293L11.6991 11.887C10.9601 11.667 9.58109 11.167 8.70709 10.293C7.83309 9.41896 7.33309 8.03996 7.11309 7.30096L8.70709 5.70696C8.80004 5.61417 8.87377 5.50397 8.92408 5.38265C8.97439 5.26134 9.00029 5.13129 9.00029 4.99996C9.00029 4.86862 8.97439 4.73858 8.92408 4.61726C8.87377 4.49595 8.80004 4.38575 8.70709 4.29296L4.70709 0.292957C4.6143 0.200011 4.5041 0.126273 4.38278 0.0759627C4.26147 0.0256519 4.13142 -0.000244141 4.00009 -0.000244141C3.86876 -0.000244141 3.73871 0.0256519 3.6174 0.0759627C3.49608 0.126273 3.38588 0.200011 3.29309 0.292957L0.58109 3.00496C0.20109 3.38496 -0.0129104 3.90696 -0.00491041 4.43996C0.0180896 5.86396 0.39509 10.81 4.29309 14.708C8.19109 18.606 13.1371 18.982 14.5621 19.006H14.5901C15.1181 19.006 15.6171 18.798 15.9951 18.42L18.7071 15.708C18.8 15.6152 18.8738 15.505 18.9241 15.3837C18.9744 15.2623 19.0003 15.1323 19.0003 15.001C19.0003 14.8696 18.9744 14.7396 18.9241 14.6183C18.8738 14.4969 18.8 14.3867 18.7071 14.294L14.7071 10.293ZM14.5801 17.005C13.3321 16.984 9.06209 16.649 5.70709 13.293C2.34109 9.92696 2.01509 5.64196 1.99509 4.41896L4.00009 2.41396L6.58609 4.99996L5.29309 6.29296C5.17555 6.41041 5.08913 6.55529 5.04164 6.71453C4.99415 6.87376 4.98709 7.04231 5.02109 7.20496C5.04509 7.31996 5.63209 10.047 7.29209 11.707C8.95209 13.367 11.6791 13.954 11.7941 13.978C11.9566 14.0129 12.1254 14.0064 12.2847 13.9591C12.4441 13.9117 12.589 13.825 12.7061 13.707L14.0001 12.414L16.5861 15L14.5801 17.005Z" fill="black"/>
</svg>

