<svg width="21" height="15" viewBox="0 0 21 15" fill="none" xmlns="http://www.w3.org/2000/svg">
<path d="M20.2596 2.20301C20.1457 1.78041 19.9231 1.39501 19.614 1.08518C19.3048 0.775338 18.9199 0.551868 18.4976 0.437007C16.9316 0.00700739 10.6666 7.59651e-06 10.6666 7.59651e-06C10.6666 7.59651e-06 4.40259 -0.00699261 2.83559 0.404007C2.41351 0.524154 2.02941 0.750785 1.72016 1.06214C1.4109 1.3735 1.18687 1.75913 1.06959 2.18201C0.65659 3.74801 0.652589 6.99601 0.652589 6.99601C0.652589 6.99601 0.648589 10.26 1.05859 11.81C1.28859 12.667 1.96359 13.344 2.82159 13.575C4.40359 14.005 10.6516 14.012 10.6516 14.012C10.6516 14.012 16.9166 14.019 18.4826 13.609C18.9051 13.4943 19.2903 13.2714 19.6002 12.9622C19.9101 12.653 20.134 12.2682 20.2496 11.846C20.6636 10.281 20.6666 7.03401 20.6666 7.03401C20.6666 7.03401 20.6866 3.76901 20.2596 2.20301ZM8.66259 10.005L8.66759 4.00501L13.8746 7.01001L8.66259 10.005Z" fill="black"/>
</svg>
